<svg xmlns="http://www.w3.org/2000/svg" width="860" height="1200" viewBox="0 0 860 1200">
  <defs>
    <style>
      .cls-1 {
        fill: #090708;
        fill-rule: evenodd;
      }
    </style>
  </defs>
  <path id="Logo_1" data-name="Logo 1" class="cls-1" d="M539.208-.1c35.594-.087,33.58,21.873,47.029,43,15.813,24.836,36.378,50.877,59.037,68.993,92.3,73.8,168.476,89.139,205.126,223.978,8.946,32.913,13.144,79.6,6,117.988-5.293,28.459-4.944,64.765-19.012,85.992-21.993,33.183-45.59-19.8-53.032-32-46.225-75.752-114.932-132.4-207.128-161.984V672.837c0.009,121.484,6.6,196.226-63.039,249.975-26.225,20.24-68.163,46.854-121.075,38C318,948.232,266.876,908.852,246.027,842.82c-39.558-125.289,77.83-252.841,206.127-214.979,24.8,7.318,44.609,19.54,63.039,33V58.9c0-12.923-2.248-31.352,2-41C521.474,8.19,530.4,5.274,539.208-.1Zm-155.1,383.962c27.18-.315,57.867-2.321,80.05,4V542.849c-24.323-2.718-53.479-9.929-82.051-5-99.8,17.219-170.748,66.278-206.127,146.985-76.274,174,41.37,326.105,185.114,357.965,131.781,29.21,243.363-62.287,279.173-143.986,12.583-28.709,16.872-58.038,23.014-94.99,7.345-44.193-10.425-90.2-23.014-118.989q-7-12-14.009-24V446.859C747.391,512.82,861.28,707.278,801.37,904.814c-46.754,154.156-157.5,254.916-325.2,288.966-46.862,9.52-112.7,8.01-157.1-2.99-150.109-37.2-244.04-129.4-296.183-264.979-23.038-59.9-31.551-159.319-12.007-230.977C22,654.078,36.363,616.505,55.91,583.845c49.915-83.4,123.421-142.093,220.136-178.982l70.043-17Z"/>
</svg>
