<svg id="Logo_Text" data-name="Logo + Text" xmlns="http://www.w3.org/2000/svg" width="190" height="53" viewBox="0 0 190 53">
  <text id="BeatFul" transform="translate(50 40)" fill="#171010" font-size="36" font-family="Poppins-Bold, Poppins" font-weight="700"><tspan x="0" y="0">BeatFul</tspan></text>
  <path id="Logo_1" data-name="Logo 1" d="M21.955-.1c1.449,0,1.367.89,1.914,1.75a11.76,11.76,0,0,0,2.4,2.808c3.756,3,6.857,3.628,8.348,9.115a11.7,11.7,0,0,1,.244,4.8c-.215,1.158-.2,2.636-.774,3.5-.9,1.35-1.855-.806-2.158-1.3A14.987,14.987,0,0,0,23.5,13.98V27.287c0,4.944.269,7.986-2.566,10.173a6.329,6.329,0,0,1-4.927,1.547c-3.057-.512-5.138-2.115-5.986-4.8-1.61-5.1,3.167-10.29,8.389-8.749A8.238,8.238,0,0,1,20.977,26.8V2.3A5.21,5.21,0,0,1,21.059.632C21.233.237,21.6.118,21.955-.1ZM15.642,15.526a12.7,12.7,0,0,1,3.258.163V22a11.663,11.663,0,0,0-3.339-.2c-4.062.7-6.949,2.7-8.389,5.982-3.1,7.081,1.684,13.272,7.534,14.568,5.363,1.189,9.9-2.535,11.362-5.86A15.826,15.826,0,0,0,27,32.617a8.987,8.987,0,0,0-.937-4.843L25.5,26.8V18.09c4.93,2.684,9.565,10.6,7.127,18.638C30.721,43,26.214,47.1,19.389,48.488A16.423,16.423,0,0,1,.942,37.582a17.138,17.138,0,0,1-.489-9.4,18,18,0,0,1,1.833-4.517,17.138,17.138,0,0,1,8.959-7.284l2.851-.692Z" transform="translate(-0.011 0.1)" fill="#090708" fill-rule="evenodd"/>
</svg>
